<svg width="29" height="28" viewBox="0 0 29 28" fill="none" xmlns="http://www.w3.org/2000/svg">
<path d="M11.6666 27.5002C12.9553 27.5002 14 26.4555 14 25.1668C14 23.8782 12.9553 22.8335 11.6666 22.8335C10.378 22.8335 9.33331 23.8782 9.33331 25.1668C9.33331 26.4555 10.378 27.5002 11.6666 27.5002Z" fill="#0C0C0C"/>
<path d="M23 27.5002C24.2886 27.5002 25.3333 26.4555 25.3333 25.1668C25.3333 23.8782 24.2886 22.8335 23 22.8335C21.7113 22.8335 20.6666 23.8782 20.6666 25.1668C20.6666 26.4555 21.7113 27.5002 23 27.5002Z" fill="#0C0C0C"/>
<path d="M1.33331 1.5L7.33331 5.5L10.6666 20.1667H24L27.3333 8.83333H14.6666M14.6666 14.8333H25.3333" stroke="#0C0C0C" stroke-width="2" stroke-linecap="round" stroke-linejoin="round"/>
</svg>
